<svg width="1920" height="1080" viewBox="0 0 1920 1080" xmlns="http://www.w3.org/2000/svg" font-family="'PingFang SC','Microsoft YaHei',-apple-system,Helvetica,Arial,sans-serif">
  <rect x="0" y="0" width="1920" height="1080" fill="#F8FAFC"/>

  <!-- ===== left nav ===== -->
  <rect x="0" y="0" width="240" height="1080" fill="#FFFFFF"/>
  <line x1="240" y1="0" x2="240" y2="1080" stroke="#E2E8F0" stroke-width="1"/>
  <rect x="20" y="18" width="32" height="32" rx="8" fill="#2563EB"/>
  <text x="29" y="40" font-size="16" font-weight="700" fill="#FFFFFF">WL</text>
  <text x="62" y="34" font-size="16" font-weight="600" fill="#0F172A">工作量后台</text>
  <text x="62" y="50" font-size="11" fill="#64748B">dashboard-monitor</text>
  <line x1="16" y1="66" x2="224" y2="66" stroke="#E2E8F0" stroke-width="1"/>
  <text x="20" y="92" font-size="11" font-weight="600" fill="#94A3B8" letter-spacing="1">概览</text>
  <text x="44" y="125" font-size="14" fill="#475569">总览</text>
  <text x="44" y="161" font-size="14" fill="#475569">实时监控台</text>
  <text x="44" y="197" font-size="14" fill="#475569">数据分析</text>
  <text x="20" y="232" font-size="11" font-weight="600" fill="#94A3B8" letter-spacing="1">消息记录</text>
  <text x="44" y="265" font-size="14" fill="#475569">记录列表</text>
  <text x="44" y="301" font-size="14" fill="#475569">会话回放</text>
  <text x="20" y="336" font-size="11" font-weight="600" fill="#94A3B8" letter-spacing="1">研发流程</text>
  <text x="44" y="369" font-size="14" fill="#475569">需求</text>
  <text x="44" y="405" font-size="14" fill="#475569">开发任务</text>
  <text x="44" y="441" font-size="14" fill="#475569">仓库</text>
  <text x="20" y="476" font-size="11" font-weight="600" fill="#94A3B8" letter-spacing="1">运行诊断</text>
  <text x="44" y="509" font-size="14" fill="#475569">接口调用</text>
  <text x="44" y="545" font-size="14" fill="#475569">长连接事件</text>
  <text x="44" y="581" font-size="14" fill="#475569">错误中心</text>
  <text x="20" y="616" font-size="11" font-weight="600" fill="#94A3B8" letter-spacing="1">报表与设置</text>
  <!-- selected: 周报链接 -->
  <rect x="0" y="626" width="240" height="36" fill="#EFF4FF"/>
  <rect x="0" y="626" width="3" height="36" fill="#2563EB"/>
  <text x="44" y="649" font-size="14" font-weight="600" fill="#2563EB">周报链接</text>
  <text x="44" y="685" font-size="14" fill="#475569">报表导出</text>
  <text x="44" y="721" font-size="14" fill="#475569">设置</text>
  <line x1="16" y1="1000" x2="224" y2="1000" stroke="#E2E8F0" stroke-width="1"/>
  <circle cx="28" cy="1028" r="5" fill="#16A34A"/>
  <text x="42" y="1032" font-size="12" fill="#475569">数据源 · SQLite 已连接</text>
  <text x="42" y="1052" font-size="11" fill="#94A3B8">延迟 12ms · 同步正常</text>

  <!-- ===== top bar ===== -->
  <rect x="240" y="0" width="1680" height="56" fill="#FFFFFF"/>
  <line x1="240" y1="56" x2="1920" y2="56" stroke="#E2E8F0" stroke-width="1"/>
  <text x="264" y="28" font-size="20" font-weight="600" fill="#0F172A">周报链接</text>
  <text x="264" y="46" font-size="12" fill="#64748B">报表与设置 / 周报链接</text>
  <rect x="820" y="14" width="280" height="28" rx="6" fill="#F8FAFC" stroke="#E2E8F0"/>
  <text x="836" y="32" font-size="13" fill="#0F172A">2026-05-01 ～ 2026-06-12</text>
  <text x="1070" y="32" font-size="12" fill="#64748B">▾</text>
  <rect x="1640" y="14" width="72" height="28" rx="6" fill="#2563EB"/>
  <text x="1656" y="32" font-size="13" fill="#FFFFFF">刷新</text>
  <text x="1722" y="32" font-size="13" fill="#475569">自动刷新</text>
  <rect x="1794" y="20" width="34" height="16" rx="8" fill="#CBD5E1"/>
  <circle cx="1810" cy="28" r="6" fill="#FFFFFF"/>
  <circle cx="1866" cy="28" r="6" fill="#16A34A"/>
  <text x="1878" y="32" font-size="13" fill="#475569">健康</text>

  <!-- ===== search bar ===== -->
  <g>
    <rect x="264" y="80" width="1680" height="64" rx="12" fill="#FFFFFF" stroke="#E2E8F0"/>
    <text x="288" y="118" font-size="13" fill="#64748B">标题</text>
    <rect x="328" y="100" width="200" height="28" rx="6" fill="#FFFFFF" stroke="#E2E8F0"/><text x="340" y="118" font-size="13" fill="#94A3B8">关键词模糊匹配</text>
    <text x="548" y="118" font-size="13" fill="#64748B">链接</text>
    <rect x="588" y="100" width="240" height="28" rx="6" fill="#FFFFFF" stroke="#E2E8F0"/><text x="600" y="118" font-size="13" fill="#94A3B8">https://...feishu...docx</text>
    <text x="848" y="118" font-size="13" fill="#64748B">日期范围</text>
    <rect x="916" y="100" width="220" height="28" rx="6" fill="#FFFFFF" stroke="#E2E8F0"/><text x="928" y="118" font-size="13" fill="#475569">2026-05-01 ～ 06-12</text>
    <text x="1156" y="118" font-size="13" fill="#64748B">生成状态</text>
    <rect x="1224" y="100" width="120" height="28" rx="6" fill="#FFFFFF" stroke="#E2E8F0"/><text x="1236" y="118" font-size="13" fill="#475569">全部 ▾</text>
    <rect x="1760" y="100" width="80" height="28" rx="6" fill="#2563EB"/><text x="1782" y="118" font-size="13" fill="#FFFFFF">搜索</text>
    <rect x="1852" y="100" width="68" height="28" rx="6" fill="#FFFFFF" stroke="#E2E8F0"/><text x="1868" y="118" font-size="13" fill="#475569">重置</text>
  </g>

  <!-- ===== weekly report table ===== -->
  <g>
    <rect x="264" y="164" width="1024" height="892" rx="12" fill="#FFFFFF" stroke="#E2E8F0"/>
    <text x="288" y="196" font-size="16" font-weight="600" fill="#0F172A">周报链接列表</text>
    <text x="1130" y="196" font-size="12" fill="#64748B">共 24 条</text>
    <!-- header -->
    <rect x="264" y="212" width="1024" height="44" fill="#F8FAFC"/>
    <line x1="264" y1="212" x2="1288" y2="212" stroke="#E2E8F0"/>
    <line x1="264" y1="256" x2="1288" y2="256" stroke="#E2E8F0"/>
    <g font-size="12" fill="#64748B" font-weight="600">
      <text x="284" y="240">日期</text>
      <text x="380" y="240">标题</text>
      <text x="640" y="240">链接</text>
      <text x="810" y="240">生成状态</text>
      <text x="930" y="240">provider</text>
      <text x="1060" y="240">返回码</text>
      <text x="1150" y="240">创建时间</text>
    </g>
    <g font-size="13" fill="#0F172A">
      <rect x="264" y="256" width="1024" height="48" fill="#EFF4FF"/>
      <rect x="264" y="256" width="3" height="48" fill="#2563EB"/>
      <text x="284" y="285">06-09</text><text x="380" y="285">第 24 周研发周报</text><text x="640" y="285" fill="#2563EB" font-family="monospace" font-size="12">docx/Vx8a...</text><circle cx="814" cy="281" r="4" fill="#16A34A"/><text x="826" y="285" fill="#16A34A">已生成</text><text x="930" y="285" fill="#0891B2">mywork</text><text x="1060" y="285">0</text><text x="1150" y="285" font-size="12">06-09 09:02</text>
      <line x1="264" y1="304" x2="1288" y2="304" stroke="#F1F5F9"/>
      <text x="284" y="333">06-02</text><text x="380" y="333">第 23 周研发周报</text><text x="640" y="333" fill="#2563EB" font-family="monospace" font-size="12">docx/Pq3k...</text><circle cx="814" cy="329" r="4" fill="#16A34A"/><text x="826" y="333" fill="#16A34A">已生成</text><text x="930" y="333" fill="#0891B2">mywork</text><text x="1060" y="333">0</text><text x="1150" y="333" font-size="12">06-02 09:05</text>
      <line x1="264" y1="352" x2="1288" y2="352" stroke="#F1F5F9"/>
      <text x="284" y="381">05-26</text><text x="380" y="381">第 22 周研发周报</text><text x="640" y="381" fill="#2563EB" font-family="monospace" font-size="12">docx/Mn7d...</text><circle cx="814" cy="377" r="4" fill="#D97706"/><text x="826" y="381" fill="#D97706">生成中</text><text x="930" y="381" fill="#0891B2">mywork</text><text x="1060" y="381" fill="#94A3B8">—</text><text x="1150" y="381" font-size="12">05-26 09:01</text>
      <line x1="264" y1="400" x2="1288" y2="400" stroke="#F1F5F9"/>
      <text x="284" y="429">05-19</text><text x="380" y="429">第 21 周研发周报</text><text x="640" y="429" fill="#2563EB" font-family="monospace" font-size="12">docx/Az9w...</text><circle cx="814" cy="425" r="4" fill="#DC2626"/><text x="826" y="429" fill="#DC2626">失败</text><text x="930" y="429" fill="#0891B2">mywork</text><text x="1060" y="429" fill="#DC2626">-1</text><text x="1150" y="429" font-size="12">05-19 09:03</text>
      <line x1="264" y1="448" x2="1288" y2="448" stroke="#F1F5F9"/>
      <text x="284" y="477">05-12</text><text x="380" y="477">第 20 周研发周报</text><text x="640" y="477" fill="#2563EB" font-family="monospace" font-size="12">docx/Bt2c...</text><circle cx="814" cy="473" r="4" fill="#16A34A"/><text x="826" y="477" fill="#16A34A">已生成</text><text x="930" y="477" fill="#0891B2">mywork</text><text x="1060" y="477">0</text><text x="1150" y="477" font-size="12">05-12 09:00</text>
      <line x1="264" y1="496" x2="1288" y2="496" stroke="#F1F5F9"/>
      <text x="284" y="525">05-06</text><text x="380" y="525">五一专项总结</text><text x="640" y="525" fill="#2563EB" font-family="monospace" font-size="12">手动登记</text><circle cx="814" cy="521" r="4" fill="#0891B2"/><text x="826" y="525" fill="#0891B2">手动</text><text x="930" y="525" fill="#94A3B8">—</text><text x="1060" y="525" fill="#94A3B8">—</text><text x="1150" y="525" font-size="12">05-06 14:20</text>
      <line x1="264" y1="544" x2="1288" y2="544" stroke="#F1F5F9"/>
      <text x="284" y="573">04-28</text><text x="380" y="573">第 18 周研发周报</text><text x="640" y="573" fill="#2563EB" font-family="monospace" font-size="12">docx/Lk5f...</text><circle cx="814" cy="569" r="4" fill="#16A34A"/><text x="826" y="573" fill="#16A34A">已生成</text><text x="930" y="573" fill="#0891B2">mywork</text><text x="1060" y="573">0</text><text x="1150" y="573" font-size="12">04-28 09:04</text>
      <line x1="264" y1="592" x2="1288" y2="592" stroke="#F1F5F9"/>
      <text x="284" y="621">04-21</text><text x="380" y="621">第 17 周研发周报</text><text x="640" y="621" fill="#2563EB" font-family="monospace" font-size="12">docx/Wq8h...</text><circle cx="814" cy="617" r="4" fill="#16A34A"/><text x="826" y="621" fill="#16A34A">已生成</text><text x="930" y="621" fill="#0891B2">mywork</text><text x="1060" y="621">0</text><text x="1150" y="621" font-size="12">04-21 09:02</text>
    </g>
    <text x="288" y="660" font-size="12" fill="#64748B">点击行查看详情 · 第 1 / 3 页</text>

    <!-- 新增记录 -->
    <line x1="264" y1="680" x2="1288" y2="680" stroke="#E2E8F0"/>
    <text x="288" y="712" font-size="16" font-weight="600" fill="#0F172A">新增记录</text>
    <text x="406" y="712" font-size="12" fill="#94A3B8">手动登记周报链接（用于非自动生成的周报）</text>
    <text x="288" y="744" font-size="13" fill="#64748B">周报链接</text>
    <rect x="288" y="754" width="600" height="32" rx="6" fill="#FFFFFF" stroke="#E2E8F0"/><text x="300" y="775" font-size="13" fill="#94A3B8">https://xxx.feishu.cn/docx/...</text>
    <text x="912" y="744" font-size="13" fill="#64748B">标题</text>
    <rect x="912" y="754" width="352" height="32" rx="6" fill="#FFFFFF" stroke="#E2E8F0"/><text x="924" y="775" font-size="13" fill="#94A3B8">第 N 周研发周报</text>
    <text x="288" y="814" font-size="13" fill="#64748B">日期范围</text>
    <rect x="288" y="824" width="280" height="32" rx="6" fill="#FFFFFF" stroke="#E2E8F0"/><text x="300" y="845" font-size="13" fill="#475569">2026-06-09 ～ 06-15</text>
    <text x="588" y="814" font-size="13" fill="#64748B">备注</text>
    <rect x="588" y="824" width="676" height="32" rx="6" fill="#FFFFFF" stroke="#E2E8F0"/><text x="600" y="845" font-size="13" fill="#94A3B8">可填写来源 / 负责人等说明</text>
    <rect x="288" y="884" width="120" height="36" rx="6" fill="#2563EB"/><text x="318" y="907" font-size="13" fill="#FFFFFF">保存登记</text>
    <rect x="424" y="884" width="100" height="36" rx="6" fill="#FFFFFF" stroke="#E2E8F0"/><text x="450" y="907" font-size="13" fill="#475569">清空</text>

    <line x1="264" y1="952" x2="1288" y2="952" stroke="#E2E8F0"/>
    <text x="288" y="984" font-size="13" font-weight="600" fill="#0F172A">本周生成概况</text>
    <text x="288" y="1010" font-size="12" fill="#64748B">已生成 18 · 生成中 1 · 失败 2 · 手动 3</text>
    <text x="288" y="1032" font-size="12" fill="#94A3B8">自动周报由 mywork conclude 触发，每周一 09:00</text>
  </g>

  <!-- ===== detail ===== -->
  <g>
    <rect x="1312" y="164" width="632" height="892" rx="12" fill="#FFFFFF" stroke="#E2E8F0"/>
    <text x="1336" y="196" font-size="16" font-weight="600" fill="#0F172A">详情</text>
    <text x="1392" y="196" font-size="12" fill="#64748B">第 24 周研发周报 · 06-09</text>
    <rect x="1830" y="180" width="90" height="24" rx="6" fill="#DCFCE7"/><circle cx="1846" cy="192" r="4" fill="#16A34A"/><text x="1858" y="196" font-size="12" fill="#16A34A">已生成</text>
    <line x1="1336" y1="212" x2="1920" y2="212" stroke="#F1F5F9"/>

    <text x="1336" y="238" font-size="12" fill="#64748B">周报链接</text>
    <rect x="1336" y="246" width="584" height="30" rx="6" fill="#F8FAFC" stroke="#E2E8F0"/>
    <text x="1348" y="266" font-family="monospace" font-size="12" fill="#2563EB">https://x.feishu.cn/docx/Vx8aQ2...wp9</text>
    <rect x="1796" y="248" width="56" height="26" rx="5" fill="#EFF4FF" stroke="#2563EB"/><text x="1808" y="265" font-size="11" fill="#2563EB">打开</text>
    <rect x="1858" y="248" width="56" height="26" rx="5" fill="#FFFFFF" stroke="#E2E8F0"/><text x="1870" y="265" font-size="11" fill="#475569">复制</text>

    <text x="1336" y="304" font-size="12" fill="#64748B">mywork JSON</text>
    <rect x="1336" y="312" width="584" height="170" rx="6" fill="#0F172A"/>
    <g font-family="monospace" font-size="12">
      <text x="1348" y="332" fill="#94A3B8">{</text>
      <text x="1364" y="350"><tspan fill="#7DD3FC">"week"</tspan><tspan fill="#94A3B8">: </tspan><tspan fill="#FCD34D">24</tspan><tspan fill="#94A3B8">,</tspan></text>
      <text x="1364" y="368"><tspan fill="#7DD3FC">"range"</tspan><tspan fill="#94A3B8">: </tspan><tspan fill="#86EFAC">"2026-06-02~06-08"</tspan><tspan fill="#94A3B8">,</tspan></text>
      <text x="1364" y="386"><tspan fill="#7DD3FC">"demands"</tspan><tspan fill="#94A3B8">: </tspan><tspan fill="#FCD34D">12</tspan><tspan fill="#94A3B8">,</tspan></text>
      <text x="1364" y="404"><tspan fill="#7DD3FC">"tasks"</tspan><tspan fill="#94A3B8">: </tspan><tspan fill="#FCD34D">31</tspan><tspan fill="#94A3B8">,</tspan></text>
      <text x="1364" y="422"><tspan fill="#7DD3FC">"merged_mr"</tspan><tspan fill="#94A3B8">: </tspan><tspan fill="#FCD34D">18</tspan><tspan fill="#94A3B8">,</tspan></text>
      <text x="1364" y="440"><tspan fill="#7DD3FC">"highlights"</tspan><tspan fill="#94A3B8">: [</tspan><tspan fill="#86EFAC">"登录改版"</tspan><tspan fill="#94A3B8">]</tspan></text>
      <text x="1348" y="458" fill="#94A3B8">}</text>
    </g>

    <text x="1336" y="510" font-size="12" fill="#64748B">doc JSON</text>
    <rect x="1336" y="518" width="584" height="130" rx="6" fill="#0F172A"/>
    <g font-family="monospace" font-size="12">
      <text x="1348" y="538" fill="#94A3B8">{</text>
      <text x="1364" y="556"><tspan fill="#7DD3FC">"doc_token"</tspan><tspan fill="#94A3B8">: </tspan><tspan fill="#86EFAC">"Vx8aQ2...wp9"</tspan><tspan fill="#94A3B8">,</tspan></text>
      <text x="1364" y="574"><tspan fill="#7DD3FC">"title"</tspan><tspan fill="#94A3B8">: </tspan><tspan fill="#86EFAC">"第24周研发周报"</tspan><tspan fill="#94A3B8">,</tspan></text>
      <text x="1364" y="592"><tspan fill="#7DD3FC">"blocks"</tspan><tspan fill="#94A3B8">: </tspan><tspan fill="#FCD34D">42</tspan><tspan fill="#94A3B8">,</tspan></text>
      <text x="1364" y="610"><tspan fill="#7DD3FC">"owner"</tspan><tspan fill="#94A3B8">: </tspan><tspan fill="#86EFAC">"bot@wl"</tspan></text>
      <text x="1348" y="628" fill="#94A3B8">}</text>
    </g>

    <text x="1336" y="676" font-size="12" fill="#64748B">stdout</text>
    <rect x="1336" y="684" width="288" height="120" rx="6" fill="#F8FAFC" stroke="#E2E8F0"/>
    <g font-family="monospace" font-size="11" fill="#475569">
      <text x="1348" y="704">✔ collect mywork ok</text>
      <text x="1348" y="722">✔ render doc blocks=42</text>
      <text x="1348" y="740">✔ create docx Vx8a...</text>
      <text x="1348" y="758">✔ set permission anyone</text>
      <text x="1348" y="776">✔ link saved to db</text>
      <text x="1348" y="794">done in 4.2s</text>
    </g>
    <text x="1632" y="676" font-size="12" fill="#64748B">stderr</text>
    <rect x="1632" y="684" width="288" height="120" rx="6" fill="#F8FAFC" stroke="#E2E8F0"/>
    <g font-family="monospace" font-size="11" fill="#94A3B8">
      <text x="1644" y="704">（空）</text>
      <text x="1644" y="722" fill="#16A34A">无警告 / 错误输出</text>
    </g>

    <line x1="1336" y1="832" x2="1920" y2="832" stroke="#F1F5F9"/>
    <text x="1336" y="860" font-size="12" fill="#64748B">元信息</text>
    <g font-size="13" fill="#0F172A">
      <text x="1336" y="888">provider</text><text x="1500" y="888" fill="#0891B2">mywork</text>
      <text x="1336" y="916">返回码</text><text x="1500" y="916" fill="#16A34A">0</text>
      <text x="1336" y="944">数据范围</text><text x="1500" y="944">2026-06-02 ～ 06-08</text>
      <text x="1336" y="972">创建时间</text><text x="1500" y="972">2026-06-09 09:02:14</text>
    </g>
    <rect x="1336" y="998" width="140" height="36" rx="6" fill="#EFF4FF" stroke="#2563EB"/><text x="1366" y="1021" font-size="13" fill="#2563EB">重新生成</text>
    <rect x="1492" y="998" width="140" height="36" rx="6" fill="#FFFFFF" stroke="#E2E8F0"/><text x="1522" y="1021" font-size="13" fill="#475569">导出 PDF</text>
  </g>
</svg>
